<svg width="47" height="47" viewBox="0 0 47 47" fill="none" xmlns="http://www.w3.org/2000/svg">
<path d="M22.1143 0C23.9684 0.000211616 25.4824 1.5058 25.4824 3.36914V43.6406C25.4822 45.4946 23.9774 47.0086 22.1143 47.0088H3.36914C1.50566 46.9996 0 45.4943 0 43.6309V3.36914C0 1.50566 1.50566 0 3.36914 0H22.1143ZM29.8984 5.97656C30.1371 5.43496 30.7709 5.18711 31.3125 5.42578L34.7451 6.94043C35.7824 7.39023 36.4434 8.40898 36.4434 9.53809V37.4629C36.4432 38.5826 35.7731 39.6016 34.7451 40.0605L31.3125 41.5752C31.184 41.6394 31.0277 41.667 30.8809 41.667C30.2842 41.667 29.8067 41.1894 29.8066 40.5928V6.40723C29.8067 6.26059 29.8343 6.11405 29.8984 5.97656ZM40.876 11.1992C41.133 10.6668 41.767 10.4285 42.3086 10.6855L45.3652 12.127C46.3657 12.5951 46.999 13.5958 46.999 14.6973V32.3037C46.9989 33.4052 46.3566 34.4059 45.3652 34.874L42.3086 36.3154C42.1618 36.3797 42.0056 36.416 41.8496 36.416C41.2621 36.416 40.7754 35.9385 40.7754 35.3418V11.6582C40.7754 11.5022 40.8117 11.346 40.876 11.1992Z" fill="currentColor"></path>
</svg>