<svg width="60" height="60" viewBox="0 0 58 58" fill="none" xmlns="http://www.w3.org/2000/svg">
<path d="M4.5918 25.8584C8.70012 29.2417 13.5339 33.5915 18.3672 38.4248C23.2005 43.2581 27.5503 48.0919 30.9336 52.2002C16.6753 53.6502 4.5918 42.5333 4.5918 28.5166V25.8584ZM10.1504 12.8086C15.467 16.9169 21.5087 22.4755 27.792 28.7588C34.0752 35.0421 39.6339 41.0838 43.7422 46.4004C41.3256 48.5753 38.6669 50.2667 35.5254 51.2334C34.8003 46.8834 30.208 40.1172 23.4414 33.3506C16.9165 26.584 9.9086 21.9921 5.55859 21.0254C6.52526 18.1254 7.97539 15.2253 10.1504 12.8086ZM21.0254 5.7998C25.6171 9.18314 31.4173 14.2586 36.9756 20.0586C42.7753 25.6167 47.8501 31.4163 51.2334 36.0078C50.2668 38.1827 49.0588 40.3578 47.8506 42.291C45.9171 37.216 40.6005 29.9662 33.834 22.958C27.0673 16.1913 19.8172 10.8747 14.7422 8.94141C16.6755 7.49145 18.8504 6.5248 21.0254 5.7998ZM28.5176 4.5918C41.5676 4.5918 51.9595 15.2254 52.2012 28.2754C50.0262 24.4088 46.4012 19.575 41.8096 14.9834C37.2179 10.3917 32.3842 6.7668 28.5176 4.5918Z" fill="white"></path>
</svg>
